<svg id="Group_43" data-name="Group 43" xmlns="http://www.w3.org/2000/svg" width="31.758" height="31.758" viewBox="0 0 31.758 31.758">
  <path id="Path_174" data-name="Path 174" d="M31.758,0V31.758H0V0ZM16.664,30.776l-.015,0-.094.046-.026.005-.019-.005-.094-.046a.027.027,0,0,0-.032.007l-.005.013-.022.566.007.026.013.017.138.1.02.005.016-.005.138-.1.016-.021.005-.022-.022-.565a.028.028,0,0,0-.022-.024m.351-.15-.017,0-.245.123-.013.013,0,.015.024.569.007.016.011.009.266.123a.033.033,0,0,0,.038-.011l.005-.019-.045-.812a.036.036,0,0,0-.026-.029m-.946,0a.03.03,0,0,0-.036.008l-.008.019-.045.812A.033.033,0,0,0,16,31.5l.02,0,.266-.123.013-.011.005-.015.022-.569,0-.016-.013-.013Z" fill="none" fill-rule="evenodd" />
  <path id="Path_175" data-name="Path 175" d="M14.542,17.35l7.017,7.017a1.985,1.985,0,1,0,2.808-2.808l-7.02-7.017,7.018-7.017a1.985,1.985,0,0,0-2.808-2.807l-7.016,7.017L7.525,4.718A1.985,1.985,0,1,0,4.717,7.524l7.02,7.018L4.718,21.56a1.985,1.985,0,1,0,2.808,2.805Z" transform="translate(1.337 1.337)" fill="#fff" fill-rule="evenodd" />
</svg>