<svg xmlns="http://www.w3.org/2000/svg" width="81.751" height="64.262" viewBox="0 0 81.751 64.262">
  <path id="Path_252" data-name="Path 252" d="M95.875,100c-1.627,0-3.254.813-6.508,2.44l2.206,6.618c-11.222.546-24.828,3.151-27.691,7.821h63.982c-1.426-2.323-5.51-4.135-10.637-5.437v-4.324h-3.66v3.511a97.121,97.121,0,0,0-13.391-1.571l2.206-6.618C99.129,100.813,97.5,100,95.875,100M63.338,120.539v2.847H55v3.66h8.338v30.707a7,7,0,0,0,6.508,6.508h52.06a7,7,0,0,0,6.508-6.508V127.047h8.338v-3.66h-8.338v-2.847Z" transform="translate(-55 -100)" fill="#ffb31c"/>
</svg>
