<svg xmlns="http://www.w3.org/2000/svg" width="27.342" height="27.342" viewBox="0 0 27.342 27.342">
  <path id="Path_173" data-name="Path 173" d="M9.463,6.687,6.208,8.509,8.031,5.255,6.208,2,9.463,3.823,12.718,2,10.895,5.255l1.823,3.255ZM25.085,19.445l3.255-1.823-1.823,3.255,1.823,3.255-3.255-1.823-3.255,1.823,1.823-3.255-1.823-3.255ZM28.34,2,26.517,5.255,28.34,8.509,25.085,6.687,21.831,8.509l1.823-3.255L21.831,2l3.255,1.823ZM17.066,16.034l3.177-3.177-2.76-2.76-3.177,3.177Zm1.341-7.147,3.046,3.046a1.3,1.3,0,0,1,0,1.836L6.26,28.962a1.3,1.3,0,0,1-1.836,0L1.378,25.915a1.3,1.3,0,0,1,0-1.836L16.571,8.887a1.3,1.3,0,0,1,1.836,0" transform="translate(-0.998 -2)" fill="#fff" />
</svg>