<svg xmlns="http://www.w3.org/2000/svg" width="35.053" height="35.061" viewBox="0 0 35.053 35.061">
  <path id="Path_84" data-name="Path 84" d="M62.463,36.462a1.985,1.985,0,0,0-1.985-.5A13.907,13.907,0,0,1,43.146,18.628a1.985,1.985,0,0,0-2.481-2.481,17.873,17.873,0,0,0,5.194,34.973A17.716,17.716,0,0,0,56.6,47.531a18.008,18.008,0,0,0,6.359-9.089,1.985,1.985,0,0,0-.5-1.98m-8.252,7.9A13.9,13.9,0,0,1,34.752,24.9a14.05,14.05,0,0,1,3.873-3.51q-.045.635-.045,1.275A17.886,17.886,0,0,0,56.447,40.532q.64,0,1.275-.045a14.026,14.026,0,0,1-3.51,3.873" transform="translate(-27.992 -16.058)" fill="#aaa" />
</svg>