<?xml version="1.0" encoding="UTF-8" standalone="no"?>
<svg
   width="416.775"
   height="313.374"
   viewBox="0 0 416.775 313.374"
   version="1.1"
   id="svg42"
   sodipodi:docname="no_passwords_dark.svg"
   inkscape:version="1.1.1 (3bf5ae0d25, 2021-09-20)"
   xmlns:inkscape="http://www.inkscape.org/namespaces/inkscape"
   xmlns:sodipodi="http://sodipodi.sourceforge.net/DTD/sodipodi-0.dtd"
   xmlns="http://www.w3.org/2000/svg"
   xmlns:svg="http://www.w3.org/2000/svg">
  <defs
     id="defs46" />
  <sodipodi:namedview
     id="namedview44"
     pagecolor="#ffffff"
     bordercolor="#999999"
     borderopacity="1"
     inkscape:pageshadow="0"
     inkscape:pageopacity="0"
     inkscape:pagecheckerboard="0"
     showgrid="false"
     inkscape:zoom="2.1890776"
     inkscape:cx="208.30691"
     inkscape:cy="156.687"
     inkscape:window-width="2880"
     inkscape:window-height="1514"
     inkscape:window-x="2869"
     inkscape:window-y="-11"
     inkscape:window-maximized="1"
     inkscape:current-layer="Group_40" />
  <g
     id="Group_40"
     data-name="Group 40"
     transform="translate(-617.679 -355.484)">
    <path
       id="Path_125"
       data-name="Path 125"
       d="M732.441,356.129H696.37a27.235,27.235,0,0,0-27.244,27.2v34.025a27.21,27.21,0,0,0,27.244,27.2h36.071a27.2,27.2,0,0,0,27.2-27.2V383.333A27.227,27.227,0,0,0,732.441,356.129ZM746,413.1a18.185,18.185,0,0,1-18.176,18.176H700.944A18.186,18.186,0,0,1,682.768,413.1V387.626a18.186,18.186,0,0,1,18.176-18.176h26.882A18.185,18.185,0,0,1,746,387.626Z"
       transform="translate(151.571 0.437)"
       fill="#fff" />
    <path
       id="Path_126"
       data-name="Path 126"
       d="M732.039,356.5H695.968a27.235,27.235,0,0,0-27.244,27.2v34.025a27.21,27.21,0,0,0,27.244,27.2h36.071a27.2,27.2,0,0,0,27.2-27.2V383.707A27.227,27.227,0,0,0,732.039,356.5ZM745.6,413.478a18.185,18.185,0,0,1-18.176,18.176H700.542a18.185,18.185,0,0,1-18.176-18.176V388a18.185,18.185,0,0,1,18.176-18.176h26.883A18.185,18.185,0,0,1,745.6,388Z"
       transform="translate(150.36 1.563)"
       fill="#6d6e70" />
    <path
       id="Path_127"
       data-name="Path 127"
       d="M732.9,355.984H696.833a27.235,27.235,0,0,0-27.244,27.2v34.025a27.21,27.21,0,0,0,27.244,27.2H732.9a27.2,27.2,0,0,0,27.2-27.2V383.188A27.226,27.226,0,0,0,732.9,355.984Zm13.562,56.975a18.185,18.185,0,0,1-18.176,18.176H701.407a18.185,18.185,0,0,1-18.176-18.176V387.481A18.185,18.185,0,0,1,701.407,369.3h26.883a18.185,18.185,0,0,1,18.176,18.176Z"
       transform="translate(152.966)"
       fill="none"
       stroke="#231f20"
       stroke-miterlimit="10"
       stroke-width="1" />
    <rect
       id="Rectangle_122"
       data-name="Rectangle 122"
       width="147.176"
       height="126.346"
       rx="8.362"
       transform="translate(791.458 421.001)"
       fill="#fff" />
    <rect
       id="Rectangle_123"
       data-name="Rectangle 123"
       width="147.176"
       height="126.346"
       rx="8.362"
       transform="translate(796.964 424.885)"
       fill="#00a551" />
    <path
       id="Path_128"
       data-name="Path 128"
       d="M665.514,427.152V408.539a33.549,33.549,0,0,1,33.551-33.547H721.6"
       transform="translate(140.691 57.258)"
       fill="none"
       stroke="#"
       stroke-miterlimit="10"
       stroke-width="0.5" />
    <path
       id="Path_129"
       data-name="Path 129"
       d="M719.319,395.068a23.822,23.822,0,1,1-20.944-12.462c6.2,0,14.472,5.569,13.959,16.836"
       transform="translate(167.934 80.194)"
       fill="#37b34a" />
    <path
       id="Path_130"
       data-name="Path 130"
       d="M781.063,377.316v59.246a33.552,33.552,0,0,1-33.551,33.551H667.434"
       transform="translate(146.474 64.259)"
       fill="none"
       stroke="#231f20"
       stroke-miterlimit="10"
       stroke-width="1" />
    <path
       id="Path_131"
       data-name="Path 131"
       d="M664.722,426.359V407.75A33.549,33.549,0,0,1,698.269,374.2h22.537"
       transform="translate(138.305 54.87)"
       fill="none"
       stroke="#231f20"
       stroke-miterlimit="10"
       stroke-width="1" />
    <path
       id="Path_132"
       data-name="Path 132"
       d="M718.472,393.64a23.822,23.822,0,1,1-20.944-12.462c6.2,0,14.473,5.569,13.959,16.84"
       transform="translate(165.383 75.893)"
       fill="none"
       stroke="#231f20"
       stroke-miterlimit="10"
       stroke-width="1.028" />
    <path
       id="Path_133"
       data-name="Path 133"
       d="M717.073,391.394s-.835-18.312-20.936-20.615"
       transform="translate(232.937 44.567)"
       fill="none"
       stroke="#231f20"
       stroke-miterlimit="10"
       stroke-width="1.057" />
    <path
       id="Path_134"
       data-name="Path 134"
       d="M684.179,357.077a27.21,27.21,0,0,1,27.211,27.212"
       transform="translate(196.916 3.292)"
       fill="none"
       stroke="#231f20"
       stroke-miterlimit="10"
       stroke-width="1.052" />
    <path
       id="Path_135"
       data-name="Path 135"
       d="M709.612,380.838a11.106,11.106,0,0,0-10.372-10.211"
       transform="translate(242.284 44.109)"
       fill="none"
       stroke="#231f20"
       stroke-miterlimit="10"
       stroke-width="1.057" />
    <path
       id="Path_136"
       data-name="Path 136"
       d="M692.295,432.7s33.672,2.592,42.406-33.655"
       transform="translate(221.364 129.708)"
       fill="none"
       stroke="#231f20"
       stroke-miterlimit="10"
       stroke-width="1.057" />
    <path
       id="Path_137"
       data-name="Path 137"
       d="M697.209,421.423s16.679,1.284,21-16.671"
       transform="translate(236.166 146.905)"
       fill="none"
       stroke="#231f20"
       stroke-miterlimit="10"
       stroke-width="1.057" />
    <path
       id="Path_138"
       data-name="Path 138"
       d="M658.836,399.924s-.73,21.947,23.063,26.6"
       transform="translate(120.566 132.362)"
       fill="none"
       stroke="#231f20"
       stroke-miterlimit="10"
       stroke-width="1.057" />
    <path
       id="Path_139"
       data-name="Path 139"
       d="M658.016,403.158s-.365,10.873,11.423,13.172"
       transform="translate(118.1 142.103)"
       fill="none"
       stroke="#231f20"
       stroke-miterlimit="10"
       stroke-width="1.057" />
    <path
       id="Path_140"
       data-name="Path 140"
       d="M695.074,367.993s-34.73,3.631-36.865,42.121"
       transform="translate(118.686 36.175)"
       fill="none"
       stroke="#231f20"
       stroke-miterlimit="10"
       stroke-width="1.057" />
    <path
       id="Path_141"
       data-name="Path 141"
       d="M683.048,366.233s-24.969,2.608-26.5,30.281"
       transform="translate(113.679 30.873)"
       fill="none"
       stroke="#231f20"
       stroke-miterlimit="10"
       stroke-width="1.057" />
    <rect
       id="Rectangle_124"
       data-name="Rectangle 124"
       width="147.176"
       height="126.346"
       rx="8.362"
       transform="translate(790.988 419.507)"
       fill="none"
       stroke="#231f20"
       stroke-miterlimit="10"
       stroke-width="2" />
    <path
       id="Path_142"
       data-name="Path 142"
       d="M782.017,378.283v59.246a33.546,33.546,0,0,1-33.551,33.547H668.392"
       transform="translate(149.36 67.172)"
       fill="none"
       stroke="black"
       stroke-miterlimit="10"
       stroke-width="0.5" />
    <path
       id="Path_143"
       data-name="Path 143"
       d="M653.712,369.106l-4.325-8.53a3.333,3.333,0,0,0-2.511-1.793h0a1.825,1.825,0,0,0-1.882.987h0a4.823,4.823,0,0,0,1.432,6.018l6.375,4.751Z"
       transform="translate(77.346 8.376)"
       fill="#29abe2"
       stroke="#000"
       stroke-miterlimit="10"
       stroke-width="0.127" />
    <path
       id="Path_144"
       data-name="Path 144"
       d="M653.8,364.17l-6.717-2.977a2.575,2.575,0,0,0-2.367.152h0a1.4,1.4,0,0,0-.638,1.5h0a3.7,3.7,0,0,0,3.771,2.889l6.107-.269Z"
       transform="translate(76.017 15.034)"
       fill="#29abe2"
       stroke="#000"
       stroke-miterlimit="10"
       stroke-width="0.127" />
    <path
       id="Path_145"
       data-name="Path 145"
       d="M648.014,362.637l9.489-1.2a3.331,3.331,0,0,1,2.893,1.075h0a1.818,1.818,0,0,1,.233,2.11h0a4.811,4.811,0,0,1-5.782,2.187l-7.511-2.616Z"
       transform="translate(85.933 16.349)"
       fill="#29abe2"
       stroke="#000"
       stroke-miterlimit="10"
       stroke-width="0.127" />
    <path
       id="Path_146"
       data-name="Path 146"
       d="M648.193,362.214l6.231,3.892a2.573,2.573,0,0,1,1.2,2.046h0a1.4,1.4,0,0,1-.887,1.368h0a3.7,3.7,0,0,1-4.506-1.5l-3.2-5.208Z"
       transform="translate(85.02 18.767)"
       fill="#29abe2"
       stroke="#000"
       stroke-miterlimit="10"
       stroke-width="0.127" />
    <path
       id="Path_147"
       data-name="Path 147"
       d="M652.27,367.283c-1.448,2.732-3.836,4.305-5.328,3.511s-1.525-3.647-.076-6.38a8.221,8.221,0,0,1,1.874-2.472c.2-.148,2.235-1.693,3.45-1.039C653.57,361.646,653.49,364.984,652.27,367.283Z"
       transform="translate(81.307 14.335)"
       fill="gray"
       stroke="#000"
       stroke-miterlimit="10"
       stroke-width="0.127" />
    <path
       id="Path_148"
       data-name="Path 148"
       d="M728.063,402.714l-8.382-4.61a3.341,3.341,0,0,0-3.086-.068h0a1.828,1.828,0,0,0-.995,1.878h0a4.826,4.826,0,0,0,4.574,4.165l7.944.333Z"
       transform="translate(291.521 125.636)"
       fill="#29abe2"
       stroke="#000"
       stroke-miterlimit="10"
       stroke-width="0.127" />
    <path
       id="Path_149"
       data-name="Path 149"
       d="M725.606,399.472l-7.23,1.324a2.561,2.561,0,0,0-1.866,1.46h0a1.388,1.388,0,0,0,.317,1.6h0a3.7,3.7,0,0,0,4.743.261l4.9-3.659Z"
       transform="translate(293.926 131)"
       fill="#29abe2"
       stroke="#000"
       stroke-miterlimit="10"
       stroke-width="0.127" />
    <path
       id="Path_150"
       data-name="Path 150"
       d="M719.5,404.231l7.166-6.335a3.331,3.331,0,0,1,2.993-.742h0a1.814,1.814,0,0,1,1.384,1.609h0a4.815,4.815,0,0,1-3.547,5.068l-7.68,2.07Z"
       transform="translate(303.317 123.733)"
       fill="#29abe2"
       stroke="#000"
       stroke-miterlimit="10"
       stroke-width="0.127" />
    <path
       id="Path_151"
       data-name="Path 151"
       d="M720.1,399.581l7.343-.293a2.576,2.576,0,0,1,2.146,1.011h0a1.4,1.4,0,0,1,.04,1.633h0a3.7,3.7,0,0,1-4.574,1.292l-5.577-2.5Z"
       transform="translate(303.239 130.441)"
       fill="#29abe2"
       stroke="#000"
       stroke-miterlimit="10"
       stroke-width="0.127" />
    <path
       id="Path_152"
       data-name="Path 152"
       d="M724.413,403.368c.341,3.073-.742,5.714-2.423,5.9s-3.318-2.155-3.659-5.228a8.164,8.164,0,0,1,.156-3.1c.08-.237.891-2.656,2.267-2.8C722.314,397.976,724.124,400.78,724.413,403.368Z"
       transform="translate(299.585 126.979)"
       fill="gray"
       stroke="#000"
       stroke-miterlimit="10"
       stroke-width="0.127" />
    <path
       id="Path_153"
       data-name="Path 153"
       d="M665.83,418.321l-8.382-4.606a3.329,3.329,0,0,0-3.085-.068h0a1.819,1.819,0,0,0-1,1.874h0a4.815,4.815,0,0,0,4.57,4.165l7.948.333Z"
       transform="translate(104.055 172.657)"
       fill="#29abe2"
       stroke="#000"
       stroke-miterlimit="10"
       stroke-width="0.127" />
    <path
       id="Path_154"
       data-name="Path 154"
       d="M663.375,415.081l-7.23,1.328a2.56,2.56,0,0,0-1.87,1.457h0a1.4,1.4,0,0,0,.317,1.6h0a3.7,3.7,0,0,0,4.747.257l4.9-3.659Z"
       transform="translate(106.458 178.019)"
       fill="#29abe2"
       stroke="#000"
       stroke-miterlimit="10"
       stroke-width="0.127" />
    <path
       id="Path_155"
       data-name="Path 155"
       d="M657.268,419.844l7.166-6.339a3.331,3.331,0,0,1,2.993-.742h0a1.825,1.825,0,0,1,1.384,1.613h0a4.817,4.817,0,0,1-3.547,5.063l-7.68,2.071Z"
       transform="translate(115.851 170.753)"
       fill="#29abe2"
       stroke="#000"
       stroke-miterlimit="10"
       stroke-width="0.127" />
    <path
       id="Path_156"
       data-name="Path 156"
       d="M657.864,415.192l7.343-.293a2.554,2.554,0,0,1,2.143,1.011h0a1.392,1.392,0,0,1,.044,1.629h0a3.7,3.7,0,0,1-4.574,1.3l-5.577-2.5Z"
       transform="translate(115.773 177.463)"
       fill="#29abe2"
       stroke="#000"
       stroke-miterlimit="10"
       stroke-width="0.127" />
    <path
       id="Path_157"
       data-name="Path 157"
       d="M662.18,418.981c.341,3.069-.747,5.714-2.424,5.9s-3.318-2.151-3.659-5.224a8.144,8.144,0,0,1,.156-3.1c.08-.237.891-2.66,2.267-2.8C660.078,413.589,661.891,416.389,662.18,418.981Z"
       transform="translate(112.119 173.999)"
       fill="gray"
       stroke="#000"
       stroke-miterlimit="10"
       stroke-width="0.127" />
    <path
       id="Path_158"
       data-name="Path 158"
       d="M686.043,458.018l82.5-4.157A23.933,23.933,0,0,0,787.6,442.707h0a6.871,6.871,0,0,0-4.056-10.3l-2.147-.57a11.42,11.42,0,0,0-14.168,9.08h0a7.331,7.331,0,0,0,1.7,6.079l3.334,3.828a26.322,26.322,0,0,0,30.61,6.741l11.363-5.092A21.7,21.7,0,0,0,826.418,427.4l-5.838-23.34"
       transform="translate(202.531 144.833)"
       fill="none"
       stroke="#fff"
       stroke-miterlimit="10"
       stroke-width="4"
       stroke-dasharray="5"
       style="stroke:#000000" />
    <path
       id="Path_159"
       data-name="Path 159"
       d="M618.809,496.887l24.218-16.595a23.226,23.226,0,0,0,9.65-23.721l-.208-1.043a18.214,18.214,0,0,0-17.863-14.641h0a10.333,10.333,0,0,0-10.336,10.332h0a14.056,14.056,0,0,0,14.252,14.055l7.989-.112a67.866,67.866,0,0,0,46.278-19.115l14.24-13.79a43.262,43.262,0,0,0,12.527-23.7l7.158-41.427"
       transform="translate(0 33.569)"
       fill="none"
       stroke="#fff"
       stroke-miterlimit="10"
       stroke-width="4"
       stroke-dasharray="5"
       style="stroke:#000000" />
    <path
       id="Path_160"
       data-name="Path 160"
       d="M657.277,418.872l11.335,8.205a129.952,129.952,0,0,0,45.668,21.029l21.695,5.236a130.036,130.036,0,0,1,24.752,8.7l33.138,15.568"
       transform="translate(115.878 189.439)"
       fill="none"
       stroke="black"
       stroke-miterlimit="10"
       stroke-width="4"
       stroke-dasharray="5" />
  </g>
</svg>
