<svg xmlns="http://www.w3.org/2000/svg" width="67.055" height="67.055" viewBox="0 0 67.055 67.055">
  <path id="Path_253" data-name="Path 253" d="M57.016,36.527A5.588,5.588,0,1,1,62.6,30.939a5.588,5.588,0,0,1-5.588,5.588m-11.176-14.9a5.588,5.588,0,1,1,5.588-5.588,5.588,5.588,0,0,1-5.588,5.588m-18.626,0A5.588,5.588,0,1,1,32.8,16.038a5.588,5.588,0,0,1-5.588,5.588m-11.176,14.9a5.588,5.588,0,1,1,5.588-5.588,5.588,5.588,0,0,1-5.588,5.588M36.527,3a33.527,33.527,0,0,0,0,67.055,5.588,5.588,0,0,0,5.588-5.588,5.469,5.469,0,0,0-1.453-3.725,5.769,5.769,0,0,1-1.416-3.725,5.588,5.588,0,0,1,5.588-5.588h6.594A18.626,18.626,0,0,0,70.055,32.8C70.055,16.336,55.042,3,36.527,3" transform="translate(-3 -3)" fill="#a9c0ff"/>
</svg>
