<svg xmlns="http://www.w3.org/2000/svg" width="66.337" height="73.708" viewBox="0 0 66.337 73.708">
  <path id="Path_261" data-name="Path 261" d="M43.539,7.528A5.528,5.528,0,1,1,38.011,2a5.521,5.521,0,0,1,5.528,5.528M23.27,13.056A5.528,5.528,0,1,0,28.8,18.584a5.521,5.521,0,0,0-5.528-5.528m20.27,25.8-2.875-8.292H51.574l7.96-3.98a2.761,2.761,0,1,0-2.469-4.938l-3.022,1.511-1.806-3.1a5.539,5.539,0,0,0-6.265-3.169l-9.1,1.953a5.651,5.651,0,0,0-4.386,5.528v2.58l-8.956,5.97h.037a3.615,3.615,0,0,0-.921,1.032l-3.28,6.523-6.56,3.28a2.744,2.744,0,0,0-1.216,3.722,2.775,2.775,0,0,0,3.722,1.216L23.491,44.6l3.833-7.592,5.16,5.528C28.8,53.6,3,68.337,3,68.337a82.119,82.119,0,0,0,33.169,7.371,82.12,82.12,0,0,0,33.169-7.371S50.91,53.6,43.539,38.854m10.5-3.354-1.179.59H48.441l.221.59a54.949,54.949,0,0,0,7.776,11.167L54.485,35.279Z" transform="translate(-3 -2)" fill="#36f1ff"/>
</svg>
