<svg xmlns="http://www.w3.org/2000/svg" width="46.742" height="46.585" viewBox="0 0 46.742 46.585">
  <g id="Group_83" data-name="Group 83" transform="translate(-1.397 -1.141)">
    <path id="Path_267" data-name="Path 267" d="M37.915,18.535,33.4,32.094a1.423,1.423,0,0,1-.944.913l-27.7,8.236A1.423,1.423,0,0,1,3,39.429l8.995-26.98a1.423,1.423,0,0,1,.807-.866L25.575,6.321a1.423,1.423,0,0,1,1.549.308L37.571,17.079a1.423,1.423,0,0,1,.344,1.456M3.809,40.344l15.1-15.1" transform="translate(0 4.902)" fill="none" stroke="#ff923e" stroke-linecap="round" stroke-linejoin="round" stroke-width="3"/>
    <path id="Path_268" data-name="Path 268" d="M22.728,3.924l5.608,5.608a4.379,4.379,0,1,1-6.191,6.191l-5.61-5.608a4.378,4.378,0,1,1,6.192-6.192" transform="translate(16.916 0)" fill="#fff" stroke="#ff923e" stroke-linecap="round" stroke-linejoin="round" stroke-width="3"/>
    <path id="Path_269" data-name="Path 269" d="M15.294,12.719a3.558,3.558,0,1,0,0,5.032,3.557,3.557,0,0,0,0-5.032" transform="translate(8.642 12.398)" fill="none" stroke="#ff923e" stroke-linecap="round" stroke-linejoin="round" stroke-width="3"/>
  </g>
</svg>
