<svg xmlns="http://www.w3.org/2000/svg" width="54.643" height="63.649" viewBox="0 0 54.643 63.649">
  <path id="Path_266" data-name="Path 266" d="M32.389,34.139,31,62.136a3.059,3.059,0,0,1-.965,2.088,3.378,3.378,0,0,1-2.438.851,2.964,2.964,0,0,1-2.125-.851,3.071,3.071,0,0,1-.968-2.088l-1.392-24.9-9.822-5.646L12.2,35.609l4.718,8.275a2.916,2.916,0,0,1,.272,2.32,2.973,2.973,0,0,1-1.432,1.856,3.033,3.033,0,0,1-2.32.309,2.852,2.852,0,0,1-1.856-1.392L6.171,37.619a3.088,3.088,0,0,1-.387-1.16,3.348,3.348,0,0,1,.077-1.237L9.187,23.157,26.975,12.948,20.633,6.607a3.027,3.027,0,0,1-.891-2.125,2.877,2.877,0,0,1,.891-2.206,3.181,3.181,0,0,1,4.331,0l9.2,9.126a2.963,2.963,0,0,1,.891,2.592,2.944,2.944,0,0,1-1.51,2.28l-7.657,4.408L29.6,23.931l23.2-18.948a2.546,2.546,0,0,1,2.051-.656,3.172,3.172,0,0,1,2.125,1.2,2.81,2.81,0,0,1,.659,1.933,2.948,2.948,0,0,1-.814,1.933ZM9.187,18.671a5.955,5.955,0,0,1-4.368-1.816A5.97,5.97,0,0,1,3,12.484,5.928,5.928,0,0,1,4.819,8.116,6,6,0,0,1,9.187,6.3a5.942,5.942,0,0,1,4.371,1.819,5.927,5.927,0,0,1,1.816,4.368,6.034,6.034,0,0,1-1.816,4.371,5.876,5.876,0,0,1-4.371,1.816" transform="translate(-3 -1.425)" fill="#f44"/>
</svg>
