<svg xmlns="http://www.w3.org/2000/svg" width="51.5" height="60.328" viewBox="0 0 51.5 60.328">
  <g id="Group_89" data-name="Group 89" transform="translate(-3.25 -2)">
    <path id="Path_279" data-name="Path 279" d="M23.171,2A16.921,16.921,0,0,0,6.25,18.921V27.75a16.921,16.921,0,0,0,33.7,2.207H26.114a2.207,2.207,0,0,1,0-4.414H40.093V21.129H26.114a2.207,2.207,0,1,1,0-4.414H39.949A16.924,16.924,0,0,0,23.171,2" transform="translate(5.829 0)" fill="#04ffd4"/>
    <path id="Path_280" data-name="Path 280" d="M5.457,9a2.207,2.207,0,0,1,2.207,2.207V14.15a21.336,21.336,0,1,0,42.671,0V11.207a2.207,2.207,0,1,1,4.414,0V14.15A25.75,25.75,0,0,1,31.207,39.806v6.716a2.207,2.207,0,1,1-4.414,0V39.806A25.75,25.75,0,0,1,3.25,14.15V11.207A2.207,2.207,0,0,1,5.457,9" transform="translate(0 13.6)" fill="#04ffd4" fill-rule="evenodd"/>
  </g>
</svg>
