<svg id="Group_79" data-name="Group 79" xmlns="http://www.w3.org/2000/svg" width="75.806" height="75.806" viewBox="0 0 75.806 75.806">
  <path id="Path_254" data-name="Path 254" d="M75.806,0V75.806H0V0ZM39.776,73.462l-.035.006-.224.111-.063.013-.044-.013-.224-.111a.065.065,0,0,0-.076.016l-.013.032-.054,1.352.016.063.032.041.328.234.047.013.038-.013.328-.234.038-.051.013-.054-.054-1.349a.067.067,0,0,0-.054-.057m.837-.357-.041.006-.584.294-.032.032-.009.035L40,74.83l.016.038.025.022.635.294a.08.08,0,0,0,.092-.025l.013-.044-.107-1.939a.085.085,0,0,0-.063-.069m-2.258.006a.073.073,0,0,0-.085.019l-.019.044-.107,1.939a.079.079,0,0,0,.054.076l.047-.006.635-.294.032-.025.013-.035.054-1.358-.009-.038-.032-.032Z" fill="none"/>
  <path id="Path_255" data-name="Path 255" d="M62.013,9.5V46.83A12.634,12.634,0,1,1,55.7,35.885V22.133L24.11,27.4V49.988a3.148,3.148,0,0,1-.047.55,11.055,11.055,0,1,1-6.27-8.961V14.761a6.317,6.317,0,0,1,5.279-6.232L54.656,3.267A6.317,6.317,0,0,1,62.013,9.5M13.055,46.83a4.738,4.738,0,1,0,4.738,4.738,4.738,4.738,0,0,0-4.738-4.738m36.324-6.317A6.317,6.317,0,1,0,55.7,46.83a6.317,6.317,0,0,0-6.317-6.317M55.7,9.5,24.11,14.761v6.232L55.7,15.727Z" transform="translate(4.317 6.866)" fill="#ff6464"/>
</svg>
