<svg xmlns="http://www.w3.org/2000/svg" width="78.031" height="66.652" viewBox="0 0 78.031 66.652">
  <path id="Path_260" data-name="Path 260" d="M43.893,5.377a4.866,4.866,0,0,1-1.626,3.635v6.119H58.524a9.754,9.754,0,0,1,9.754,9.754V57.4a9.754,9.754,0,0,1-9.754,9.754H19.508A9.754,9.754,0,0,1,9.754,57.4V24.885a9.754,9.754,0,0,1,9.754-9.754H35.764V9.012a4.877,4.877,0,1,1,8.128-3.635M19.508,21.634a3.251,3.251,0,0,0-3.251,3.251V57.4a3.251,3.251,0,0,0,3.251,3.251H58.524A3.251,3.251,0,0,0,61.775,57.4V24.885a3.251,3.251,0,0,0-3.251-3.251H19.508ZM6.5,31.388H0V50.9H6.5Zm65.026,0h6.5V50.9h-6.5ZM29.262,46.019a4.877,4.877,0,1,0-4.877-4.877,4.877,4.877,0,0,0,4.877,4.877m19.508,0a4.877,4.877,0,1,0-4.877-4.877,4.877,4.877,0,0,0,4.877,4.877" transform="translate(0 -0.5)" fill="#fff"/>
</svg>
