<svg xmlns="http://www.w3.org/2000/svg" width="54.643" height="45.6" viewBox="0 0 54.643 45.6">
  <path id="Path_270" data-name="Path 270" d="M9.691,29.154V36.5a5.256,5.256,0,0,0,2.718,4.6l13.068,7.135a5.189,5.189,0,0,0,5.018,0L43.563,41.1a5.256,5.256,0,0,0,2.718-4.6V29.154L30.5,37.779a5.189,5.189,0,0,1-5.018,0ZM25.477,3.907,3.445,15.93a2.632,2.632,0,0,0,0,4.6L25.477,32.552a5.189,5.189,0,0,0,5.018,0L51.508,21.078V36.524a2.614,2.614,0,0,0,5.227,0V19.772a2.628,2.628,0,0,0-1.359-2.3L30.5,3.907a5.332,5.332,0,0,0-5.018,0" transform="translate(-2.093 -3.28)" fill="#7b96ff"/>
</svg>
