<svg xmlns="http://www.w3.org/2000/svg" width="66.337" height="66.114" viewBox="0 0 66.337 66.114">
  <path id="Path_259" data-name="Path 259" d="M68.305,31.763a13.246,13.246,0,0,0-6.623-11.524,9.934,9.934,0,0,0,0-1.722,9.935,9.935,0,0,0-9.935-9.935h-.6a9.935,9.935,0,0,0-15.962-4.04,9.935,9.935,0,0,0-15.962,4.04h-.6A9.935,9.935,0,0,0,8.7,18.517a9.935,9.935,0,0,0,0,1.722A13.246,13.246,0,0,0,6.875,42.062,13.246,13.246,0,0,0,18.631,61.568h.6a9.935,9.935,0,0,0,15.962,4.04,9.935,9.935,0,0,0,15.962-4.04h.6A13.246,13.246,0,0,0,63.338,42.062a13.246,13.246,0,0,0,4.967-10.3M31.878,23.65a15.631,15.631,0,0,0-2.252-1.06,3.32,3.32,0,1,0-2.119,6.292,6.623,6.623,0,0,1,4.371,6.193v5.133a15.631,15.631,0,0,0-2.252-1.06,3.32,3.32,0,0,0-2.119,6.292,6.623,6.623,0,0,1,4.371,6.193v6.623a3.3,3.3,0,0,1-6.325,1.325,13.479,13.479,0,0,0,1.59-1.093,3.316,3.316,0,1,0-4.239-5.1,6.591,6.591,0,0,1-9.835-8.577,12.65,12.65,0,0,0,2.252.2,3.312,3.312,0,1,0,0-6.623,6.093,6.093,0,0,1-2.285-.431,6.623,6.623,0,0,1-1.027-11.988,10.266,10.266,0,0,0,1.523,1.159,3.323,3.323,0,0,0,3.312-5.762,2.98,2.98,0,0,1-1.126-1.093,3.047,3.047,0,0,1-.4-1.755,3.312,3.312,0,0,1,3.312-3.312,2.517,2.517,0,0,1,.7,0,12.749,12.749,0,0,0,.629,1.556,3.284,3.284,0,1,0,5.729-3.212,3.51,3.51,0,0,1-.431-1.656,3.312,3.312,0,0,1,6.623,0ZM57.344,37.956a6.093,6.093,0,0,1-2.285.431,3.312,3.312,0,0,0,0,6.623,12.65,12.65,0,0,0,2.252-.2,6.6,6.6,0,0,1-9.835,8.577,3.316,3.316,0,0,0-4.239,5.1,13.478,13.478,0,0,0,1.59,1.093A3.3,3.3,0,0,1,38.5,58.256V51.633a6.623,6.623,0,0,1,4.371-6.193,3.32,3.32,0,1,0-2.119-6.292,15.631,15.631,0,0,0-2.252,1.06V35.075a6.623,6.623,0,0,1,4.371-6.193,3.32,3.32,0,0,0-2.119-6.292A15.631,15.631,0,0,0,38.5,23.65V11.894a3.312,3.312,0,1,1,6.623,0,3.51,3.51,0,0,1-.431,1.656,3.309,3.309,0,1,0,5.729,3.312,12.75,12.75,0,0,0,.629-1.656,2.517,2.517,0,0,1,.7,0A3.292,3.292,0,0,1,54.5,20.338,2.98,2.98,0,0,1,53.4,21.365a3.323,3.323,0,1,0,3.312,5.762,8.809,8.809,0,0,0,1.656-1.159,6.623,6.623,0,0,1-.894,11.988Z" transform="translate(-1.968 -2.018)" fill="#ff77c4"/>
</svg>
