<svg xmlns="http://www.w3.org/2000/svg" width="67.055" height="67.055" viewBox="0 0 67.055 67.055">
  <path id="Path_250" data-name="Path 250" d="M35.027,1.5A33.527,33.527,0,1,1,1.5,35.027,33.527,33.527,0,0,1,35.027,1.5m-6,5.792,6,4.008,6-4a28.483,28.483,0,0,0-12.008,0M22.87,9.392a28.473,28.473,0,0,0-9.738,7.6l3.337,10.853,5.189,1.728,10.791-8.206V15.778ZM9.485,22.674a28.178,28.178,0,0,0-2.672,9.352l4.565-3.193ZM6.844,38.3a28.258,28.258,0,0,0,4.4,12.2h9.821l3.275-3.275-4.245-12.74-5.282-1.759ZM15.561,55.66a28.122,28.122,0,0,0,7.067,4.89l-2.161-4.89Zm13.72,7.154a28.5,28.5,0,0,0,11.492,0l4.075-9.161L41.7,50.5H28.358l-3.146,3.146Zm18.141-2.264A28.431,28.431,0,0,0,54.5,55.66H49.6ZM58.806,50.5a28.133,28.133,0,0,0,4.353-11.786L55.2,32.742,49.96,34.486l-4.245,12.74L48.99,50.5Zm4.467-18.146A28.184,28.184,0,0,0,60.539,22.6l-1.893,6.293ZM56.856,16.907a28.473,28.473,0,0,0-9.671-7.52l-9.579,6.391v5.591L48.4,29.57l5.179-1.723ZM25.165,33.377l3.982,11.967h11.76L44.89,33.382l-9.862-7.495Z" transform="translate(-1.5 -1.5)" fill="#efc46f" />
</svg>