<svg xmlns="http://www.w3.org/2000/svg" width="73.011" height="72.07" viewBox="0 0 73.011 72.07">
  <g id="Group_82" data-name="Group 82" transform="translate(-0.03 -0.5)">
    <path id="Path_263" data-name="Path 263" d="M24.988,15l3.2,6.875s14.372,3.052,14.372,10.31c0,5.157-6.394,5.157-6.394,5.157H19.134L10.75,32.688" transform="translate(21.127 32.724)" fill="none" stroke="#45dc40" stroke-linecap="round" stroke-linejoin="round" stroke-width="5"/>
    <path id="Path_264" data-name="Path 264" d="M22.283,15l-3.193,6.875S4.714,24.93,4.714,32.189c0,5.157,6.394,5.157,6.394,5.157h7.713L27.2,32.688l10.247-6.521" transform="translate(4.673 32.724)" fill="none" stroke="#45dc40" stroke-linecap="round" stroke-linejoin="round" stroke-width="5"/>
    <path id="Path_265" data-name="Path 265" d="M3,51.164a129.2,129.2,0,0,0,12.777-3.435c4.788-24.063,19.156-22.346,20.758-22.346s15.97-1.718,20.758,22.346A130.329,130.329,0,0,0,70.07,51.164M36.535,17.9a7.452,7.452,0,1,0-7.452-7.452A7.452,7.452,0,0,0,36.535,17.9" transform="translate(0 0)" fill="none" stroke="#45dc40" stroke-linecap="round" stroke-linejoin="round" stroke-width="5"/>
  </g>
</svg>
